<?xml version="1.0" encoding="utf-8"?>
<!-- Generator: Adobe Illustrator 15.1.0, SVG Export Plug-In . SVG Version: 6.00 Build 0)  -->
<!DOCTYPE svg PUBLIC "-//W3C//DTD SVG 1.1//EN" "http://www.w3.org/Graphics/SVG/1.1/DTD/svg11.dtd">
<svg version="1.1" id="Layer_1" xmlns="http://www.w3.org/2000/svg" xmlns:xlink="http://www.w3.org/1999/xlink" x="0px" y="0px"
	 width="198.97px" height="122.373px" viewBox="0 0 198.97 122.373" enable-background="new 0 0 198.97 122.373"
	 xml:space="preserve">
<path fill="#303030" d="M198.429,59.419c1.771,4.019-1.106,8.015-4.338,9.296c-19.967,0-42.021,0-63.213,0
	c-6.295,0-15.76,1.645-18.592-1.704c-1.474-1.741-1.64-4.966-0.62-6.972c0.756-1.489,2.591-2.783,4.648-3.253
	c3.337-0.764,7.943,0.246,11.774-0.155c-1.079-14.517-1.807-30.729-4.647-44.001c-5.555-0.275-11.454,0.541-13.17-3.408
	c-0.7-1.613-0.832-3.98,0.155-5.888c2.147-4.15,9.325-3.357,15.804-3.099c3.485,0.14,7.159,0,10.689,0
	c6.727,0,13.505,0.465,20.762,0.465c9.911,0,21.062,0.194,30.521,1.395c3.558,0.451,6.234,1.067,7.282,3.253
	c2.037,4.251-1.217,8.149-4.338,9.451c-3.8,0.029-7.547,0.006-11.155-0.155c-0.984,13.631-1.605,27.626-2.324,41.522
	C184.639,57.425,195.977,53.851,198.429,59.419z M165.274,56.475c0.565-14.412,1.503-28.452,2.169-42.762
	c-10.235-0.198-20.311-0.553-30.522-0.774c-0.181,0.026-0.168,0.245-0.154,0.465c1.298,14.401,1.266,30.134,3.873,43.226
	C148.833,56.562,157.324,56.788,165.274,56.475z"/>
<path fill="#303030" d="M101.826,60.683c1.26,4.53-2.729,8.813-7.127,8.211c-1.46-0.199-3.968-2.042-5.423-2.943
	c-12.004-7.442-22.433-16.473-34.24-23.86C43.484,51.903,30.787,63.796,14.133,69.67c-2.374,0.836-5.325,2.122-7.592,2.168
	C3.255,71.904,1.243,69.936,0.5,68.12c-1.449-3.54,0.461-6.681,3.099-8.057c1.107-0.578,2.529-0.707,3.718-1.084
	c3.365-1.071,6.83-2.694,9.916-4.338C27.12,49.373,36.186,42.181,44.345,34.5c0.767-0.724,1.686-1.531,2.479-2.324
	c0.845-0.844,1.829-1.571,2.324-2.324c1.303-1.982,2.236-5.277,2.789-7.902c0.592-2.806,0.874-5.928,1.084-9.451
	c-11.014,0.784-23.377,1.778-35.169,2.789c-4.448,0.381-8.68,0.454-10.071-3.099c-1.778-4.541,1.4-8.402,5.268-8.986
	c1.824-0.276,4.017-0.048,6.043-0.155c13.104-0.697,28.685-0.819,40.282-2.943c1.618-0.296,4.149,0.02,5.113,1.239
	c1.054,1.333,0.93,4.781,0.93,7.437c0,8.349-1.173,16.181-3.254,21.69c1.459,1.542,3.254,2.618,4.958,3.874
	c8.281,6.098,16.032,12.545,25.099,18.592c1.502,1.001,3.51,2.289,5.268,3.409C99.184,57.425,101.33,58.901,101.826,60.683z"/>
<g>
	<path fill="#303030" d="M4.424,106.479c0.066,2.02,1.603,3.422,3.873,3.422c2.571,0,4.023-1.568,4.023-4.523V88.016h3.005v17.378
		c0,4.591-2.654,7.278-7.011,7.278c-4.04,0-6.877-2.504-6.877-6.193H4.424z"/>
	<path fill="#303030" d="M42.64,100.052c0,7.695-4.173,12.62-11.051,12.62c-6.911,0-11.051-4.908-11.051-12.62
		c0-7.745,4.24-12.604,11.051-12.604C38.434,87.448,42.64,92.322,42.64,100.052z M23.627,100.052c0,5.976,2.955,9.849,7.962,9.849
		c4.941,0,7.963-3.873,7.963-9.849c0-6.026-3.039-9.833-7.963-9.833C26.682,90.219,23.627,94.025,23.627,100.052z"/>
	<path fill="#303030" d="M47.858,112.104V88.016h2.921l13.071,18.746h0.267V88.016h2.972v24.088h-2.921l-13.071-18.68h-0.267v18.68
		H47.858z"/>
	<path fill="#303030" d="M91.989,88.016c4.557,0,7.712,3.205,7.712,7.796c0,4.507-3.222,7.695-7.746,7.695h-6.06v8.597h-3.005
		V88.016H91.989z M85.896,100.836h5.309c3.422,0,5.409-1.836,5.409-5.024c0-3.306-1.92-5.125-5.409-5.125h-5.309V100.836z"/>
	<path fill="#303030" d="M107.588,103.624c0,3.64,2.387,6.276,6.561,6.276c4.172,0,6.56-2.637,6.56-6.276V88.016h3.005v15.809
		c0,5.142-3.589,8.848-9.564,8.848c-5.977,0-9.566-3.706-9.566-8.848V88.016h3.005V103.624z"/>
	<path fill="#303030" d="M132.836,112.104h-3.005V88.016h9.198c4.641,0,7.678,2.838,7.678,7.178c0,3.355-1.818,5.96-4.84,6.912
		l5.574,9.998h-3.521l-5.158-9.531h-5.926V112.104z M132.836,99.901h5.926c3.088,0,4.841-1.653,4.841-4.607
		c0-2.888-1.87-4.607-4.975-4.607h-5.792V99.901z"/>
	<path fill="#303030" d="M160.438,88.016c7.145,0,11.367,4.457,11.367,12.036c0,7.595-4.206,12.052-11.367,12.052h-8.264V88.016
		H160.438z M155.179,109.4h5.058c5.375,0,8.497-3.439,8.497-9.315c0-5.893-3.155-9.364-8.497-9.364h-5.058V109.4z"/>
	<path fill="#303030" d="M183.667,112.104v-10.365l-8.547-13.723h3.422l6.493,10.701h0.268l6.493-10.701h3.422l-8.547,13.723v10.365
		H183.667z"/>
</g>
</svg>
