<?xml version="1.0" encoding="utf-8"?>
<!-- Generator: Adobe Illustrator 15.1.0, SVG Export Plug-In . SVG Version: 6.00 Build 0)  -->
<!DOCTYPE svg PUBLIC "-//W3C//DTD SVG 1.1//EN" "http://www.w3.org/Graphics/SVG/1.1/DTD/svg11.dtd">
<svg version="1.1" id="Layer_1" xmlns="http://www.w3.org/2000/svg" xmlns:xlink="http://www.w3.org/1999/xlink" x="0px" y="0px"
	 width="64.622px" height="64.622px" viewBox="0 0 64.622 64.622" enable-background="new 0 0 64.622 64.622" xml:space="preserve">
<g>
</g>
<g>
	<path fill="#303030" d="M60.337,26.341c-0.35,4.852-0.571,9.833-0.826,14.778c1.484,0.269,3.523-0.076,5.111,0.026V26.234
		c-0.104,0.06-0.209,0.119-0.314,0.163C62.955,26.408,61.622,26.4,60.337,26.341z"/>
	<path fill="#303030" d="M12.058,33.409c0.273-0.256,0.6-0.544,0.883-0.827c0.301-0.3,0.65-0.558,0.827-0.828
		c0.463-0.706,0.795-1.877,0.993-2.812c0.21-0.998,0.31-2.11,0.386-3.364c-3.921,0.278-8.321,0.634-12.519,0.993
		C1.648,26.656,0.699,26.696,0,26.416V41.71c0.829-0.334,1.651-0.729,2.408-1.132C5.928,38.704,9.153,36.143,12.058,33.409z"/>
	<path fill="#303030" d="M42.856,45.586c-2.24,0-5.61,0.586-6.617-0.605c-0.524-0.619-0.583-1.768-0.222-2.482
		c0.271-0.529,0.923-0.99,1.655-1.158c1.188-0.27,2.826,0.088,4.19-0.055c-0.384-5.166-0.642-10.936-1.654-15.661
		c-1.977-0.098-4.076,0.193-4.687-1.212c-0.249-0.574-0.297-1.417,0.055-2.095c0.765-1.477,3.318-1.195,5.625-1.104
		c1.24,0.051,2.548,0,3.804,0c2.396,0,4.808,0.166,7.391,0.166c3.527,0,7.496,0.069,10.863,0.495
		c0.519,0.066,0.967,0.153,1.362,0.273V7.312C64.622,3.274,61.348,0,57.309,0H7.312C3.274,0,0,3.274,0,7.312v15.295
		c0.279-0.169,0.591-0.289,0.919-0.338c0.648-0.098,1.429-0.017,2.15-0.055c4.663-0.248,10.209-0.291,14.337-1.047
		c0.575-0.105,1.478,0.007,1.819,0.441c0.375,0.474,0.332,1.702,0.332,2.646c0,2.972-0.418,5.76-1.159,7.72
		c0.521,0.549,1.159,0.933,1.765,1.379c2.948,2.172,5.707,4.465,8.935,6.617c0.534,0.357,1.248,0.814,1.874,1.213
		c0.604,0.385,1.368,0.91,1.544,1.543c0.449,1.613-0.971,3.139-2.535,2.924c-0.521-0.07-1.412-0.727-1.932-1.049
		c-4.271-2.648-7.983-5.861-12.187-8.492c-4.111,3.492-8.631,7.727-14.559,9.814C0.9,46.067,0.449,46.246,0,46.396v10.913
		c0,4.037,3.274,7.312,7.312,7.312h49.996c4.039,0,7.313-3.275,7.313-7.312V45.586C57.71,45.586,50.142,45.586,42.856,45.586z"/>
	<path fill="#303030" d="M44.952,25.901c0.461,5.125,0.449,10.725,1.378,15.385c2.916-0.023,5.938,0.057,8.769-0.055
		c0.201-5.129,0.534-10.127,0.771-15.22c-3.644-0.071-7.229-0.197-10.864-0.275C44.943,25.745,44.946,25.824,44.952,25.901z"/>
</g>
</svg>
