<?xml version="1.0" encoding="utf-8"?>
<!-- Generator: Adobe Illustrator 15.1.0, SVG Export Plug-In  -->
<!DOCTYPE svg PUBLIC "-//W3C//DTD SVG 1.1//EN" "http://www.w3.org/Graphics/SVG/1.1/DTD/svg11.dtd" [
	<!ENTITY ns_flows "http://ns.adobe.com/Flows/1.0/">
]>
<svg version="1.1"
	 xmlns="http://www.w3.org/2000/svg" xmlns:xlink="http://www.w3.org/1999/xlink" xmlns:a="http://ns.adobe.com/AdobeSVGViewerExtensions/3.0/"
	 x="0px" y="0px" width="151px" height="88px" viewBox="-0.577 -0.856 151 88"
	 style="overflow:visible;enable-background:new -0.577 -0.856 151 88;" xml:space="preserve">
<defs>
</defs>
<path style="fill:#404040;" d="M147.51,40.919c-0.87-0.286-2.183-0.116-3.38-0.116c-3.568,0-7.561,0.181-10.375-0.233
	c-0.936-4.59-0.699-10.183-0.699-15.621c0-2.723,0.043-5.439,0.116-8.043c0.074-2.668,0.076-5.25,0.583-7.577
	c1.877-0.213,3.879-0.116,5.945-0.116c2.021,0,4.455,0.453,6.061-0.118c2.866-1.019,3.461-7.508,0.35-8.741
	c-1.559-0.619-5.148-0.234-8.043-0.234c-18.264,0-36.113,0-53.855,0c-1.467,0-3.074-0.217-4.195,0
	c-3.325,0.646-3.321,7.393-0.467,8.742c1.674,0.793,4.928,0.352,6.994,0.352c2.768,0,4.572-0.263,6.178,1.281
	c0.211,7.141,0.117,14.73,0.117,22.265c0,1.746,0.426,6.393-0.233,7.345c-0.835,1.21-5.065,0.7-6.877,0.7
	c-2.146,0-5.905-0.426-7.577,0.116c-2.803,0.909-3.481,7.438-0.7,8.743c1.499,0.702,5.976,0.231,8.626,0.231
	c18.129,0,35.58,0,53.273,0c2.816,0,7.168,0.468,8.742-0.231C151.04,48.349,150.356,41.856,147.51,40.919z M124.196,40.219
	c-0.586,0.826-3.839,0.873-5.246,0.932c-4.252,0.181-7.465,0.146-12.123,0c-1.873-0.057-4.676-0.11-5.246-0.932
	c-0.617-0.888-0.232-6.113-0.232-7.693c0-7.44,0-12.326,0-19.817c0-1.142-0.023-2.812,0.582-3.263
	c0.639-0.476,2.688-0.393,3.964-0.467c1.597-0.092,3.019-0.049,4.429-0.117c2.592-0.123,7.371,0.003,10.609,0.233
	c1.146,0.083,2.573,0.018,3.03,0.468c0.892,0.877,0.466,5.643,0.466,7.46c0,6.831,0,12.504,0,19.583
	C124.429,37.894,124.561,39.705,124.196,40.219z"/>
<path style="fill:#404040;" d="M66.855,43.733c0.393,1.662-0.599,3.537-1.282,4.43c-0.751,0.98-1.856,2.168-3.38,2.215
	c-1.251,0.039-2.599-1.051-3.847-1.865c-3.57-2.328-6.803-4.25-10.375-6.412c-3.156-1.91-6.882-4.334-10.142-6.645
	c-1.3-0.92-2.191-1.749-4.08-1.515c-1.28,0.158-2.325,1.488-3.381,2.448c-5.179,4.704-9.292,9.493-14.222,14.688
	c-0.73,0.77-1.887,1.801-2.914,2.914c-1.098,1.189-1.955,2.401-3.147,2.564c-1.744,0.238-3.17-0.695-4.196-1.632
	c-0.955-0.873-2.145-2.116-2.098-3.729c0.038-1.318,1.608-2.582,2.681-3.73c6.09-6.531,12.504-12.505,18.884-18.885
	c1.293-1.294,2.697-2.369,3.38-4.08c1.092-2.735,0.816-5.538,0.816-9.676c0-1.769,0.506-4.369-0.466-5.479
	c-0.915-1.044-4.015-0.699-6.412-0.699c-5.106,0-9.13,0-14.221,0c-2.201,0-5.319,0.317-6.645-0.35
	c-2.246-1.129-2.532-6.825-0.117-8.043C20.077,0.04,38.685,0.136,57.646,0.136c2.244,0,6.378-0.426,7.693,0.233
	c2.152,1.079,2,6.252,0.117,7.344c-1.181,0.685-4.222,0.35-6.179,0.35c-4.585,0-8.262,0-12.939,0c-2.931,0-5.543-0.377-6.644,0.583
	c-1.396,1.217-0.933,4.835-0.933,7.46c0,2.855-0.439,5.918,0.233,8.043c0.46,1.456,1.541,2.223,2.915,3.031
	c1.424,0.837,2.361,1.784,3.381,2.564c5.864,4.494,11.458,7.371,18.301,11.424C64.804,41.887,66.636,42.806,66.855,43.733z"/>
<path style="fill:#404040;" d="M3.361,82.183c0.051,1.535,1.217,2.6,2.941,2.6c1.953,0,3.056-1.191,3.056-3.436V68.159h2.282v13.199
	c0,3.487-2.016,5.529-5.326,5.529c-3.068,0-5.224-1.902-5.224-4.705H3.361z"/>
<path style="fill:#404040;" d="M32.389,77.302c0,5.845-3.17,9.586-8.395,9.586c-5.25,0-8.394-3.729-8.394-9.586
	c0-5.885,3.221-9.574,8.394-9.574C29.194,67.728,32.389,71.431,32.389,77.302z M17.946,77.302c0,4.539,2.245,7.48,6.048,7.48
	c3.753,0,6.048-2.941,6.048-7.48c0-4.578-2.308-7.469-6.048-7.469C20.267,69.833,17.946,72.724,17.946,77.302z"/>
<path style="fill:#404040;" d="M36.351,86.456V68.159h2.219l9.928,14.239h0.203V68.159h2.257v18.297h-2.219l-9.929-14.189h-0.203
	v14.189H36.351z"/>
<path style="fill:#404040;" d="M69.871,68.159c3.462,0,5.858,2.434,5.858,5.921c0,3.424-2.447,5.846-5.884,5.846h-4.603v6.53H62.96
	V68.159H69.871z M65.243,77.897h4.032c2.599,0,4.108-1.395,4.108-3.817c0-2.511-1.458-3.893-4.108-3.893h-4.032V77.897z"/>
<path style="fill:#404040;" d="M81.72,80.015c0,2.764,1.812,4.768,4.982,4.768s4.983-2.004,4.983-4.768V68.159h2.282v12.008
	c0,3.905-2.727,6.721-7.266,6.721s-7.266-2.815-7.266-6.721V68.159h2.283V80.015z"/>
<path style="fill:#404040;" d="M100.896,86.456h-2.282V68.159h6.986c3.525,0,5.833,2.155,5.833,5.452
	c0,2.548-1.382,4.526-3.677,5.249l4.234,7.596h-2.676l-3.918-7.24h-4.501V86.456z M100.896,77.187h4.501
	c2.346,0,3.678-1.255,3.678-3.5c0-2.193-1.42-3.499-3.779-3.499h-4.399V77.187z"/>
<path style="fill:#404040;" d="M121.861,68.159c5.427,0,8.636,3.385,8.636,9.143c0,5.769-3.196,9.154-8.636,9.154h-6.276V68.159
	H121.861z M117.867,84.401h3.842c4.083,0,6.454-2.611,6.454-7.075c0-4.476-2.396-7.113-6.454-7.113h-3.842V84.401z"/>
<path style="fill:#404040;" d="M139.505,86.456v-7.875l-6.492-10.422h2.599l4.933,8.127h0.203l4.933-8.127h2.599l-6.492,10.422
	v7.875H139.505z"/>
</svg>
